# xmcd
# Copyright (C) 1995-1998 Ti Kan
#
# Track frame offsets:
#       150
#       28215
#       48820
#       62227
#       80070
#       87792
#       99680
#       117000
#       132852
#       141915
#       155102
#       169887
#       185155
#       201420
#       219930
#       236035
#       244267
#       274467
#
# Disc length: 3892 seconds
#
# Revision: 1
# Processed by: cddbd v1.5.2PL0 Copyright (c) Steve Scherf et al.
# Submitted via: CD-Import v1.0
#
DISCID=150f3212
DTITLE=John Frusciante - Shadows Collide With People
DYEAR=04
DGENRE=
TTITLE0=Carvel
TTITLE1=Omission
TTITLE2=Regret
TTITLE3=Ricky
TTITLE4=Second Walk
TTITLE5=Every Person
TTITLE6=00ghost27
TTITLE7=Wednesdays' Song
TTITLE8=This Cold
TTITLE9=Failure33 Object
TTITLE10=Song To Sing When I'm Lonely
TTITLE11=Time Goes Back
TTITLE12=In Relief
TTITLE13=Water
TTITLE14=Cut-Out
TTITLE15=Chances
TTITLE16=23 Go In The End
TTITLE17=The Shalughter
EXTD=
EXTT0=
EXTT1=
EXTT2=
EXTT3=
EXTT4=
EXTT5=
EXTT6=
EXTT7=
EXTT8=
EXTT9=
EXTT10=
EXTT11=
EXTT12=
EXTT13=
EXTT14=
EXTT15=
EXTT16=
EXTT17=
PLAYORDER=
